<svg xmlns="http://www.w3.org/2000/svg" viewBox="0 13.279999732971191 268.6499938964844 38.11360168457031" data-asc="1.0244140625"><g fill="#e8e8e8"><g fill="#e8e8e8" transform="translate(0, 0)"><path d="M0 24.37Q0 22.80 1.20 21.66Q2.39 20.51 4.10 19.80Q5.81 19.09 7.67 18.73Q9.52 18.36 10.84 18.36Q12.16 18.36 13.50 18.80Q14.84 19.24 15.87 20.04Q16.89 20.85 17.46 22.09Q18.02 23.34 17.82 24.95Q17.58 27.44 16.19 29.35Q14.79 31.25 12.77 32.54Q10.74 33.84 8.37 34.50Q6.01 35.16 3.81 35.16Q3.81 36.96 3.96 38.75Q4.10 40.53 4.27 42.33Q4.44 44.14 4.59 45.92Q4.74 47.71 4.74 49.51Q4.74 50.05 4.64 50.51Q4.54 50.98 3.76 51.22L2.78 50.29Q2.78 50.24 2.64 48.93Q2.49 47.61 2.22 45.51Q1.95 43.41 1.64 40.75Q1.32 38.09 1.03 35.40Q0.73 32.71 0.46 30.22Q0.20 27.73 0 25.93Q0 25.88 0 25.68Q0 25.49 0 25.24Q0 25 0 24.76Q0 24.51 0 24.37M2.73 26.12Q2.73 27.15 2.76 28.03Q2.78 28.91 2.91 29.74Q3.03 30.57 3.22 31.45Q3.42 32.32 3.76 33.45Q5.27 33.20 7.37 32.52Q9.47 31.84 11.40 30.66Q13.33 29.49 14.65 27.95Q15.97 26.42 15.97 24.51Q15.97 23.49 15.48 22.68Q14.99 21.88 14.23 21.34Q13.48 20.80 12.55 20.51Q11.62 20.21 10.74 20.21Q9.33 20.21 7.89 20.56Q6.45 20.90 5.30 21.63Q4.15 22.36 3.44 23.49Q2.73 24.61 2.73 26.12ZM19.29 39.75Q19.29 38.28 19.92 36.50Q20.56 34.72 21.66 33.18Q22.75 31.64 24.15 30.59Q25.54 29.54 27.05 29.54Q27.88 29.54 28.69 29.88Q29.49 30.22 30.25 30.79Q31.01 31.35 31.62 32.06Q32.23 32.76 32.57 33.54Q32.91 34.33 32.93 35.06Q32.96 35.79 32.52 36.33L22.22 38.23Q22.02 38.28 21.88 38.70Q21.73 39.11 21.63 39.75Q21.53 40.38 21.46 41.14Q21.39 41.89 21.34 42.60Q21.29 43.31 21.29 43.87Q21.29 44.43 21.29 44.73Q21.29 46.09 21.95 46.95Q22.61 47.80 23.63 48.24Q24.66 48.68 25.95 48.83Q27.25 48.97 28.52 48.97Q29.79 48.97 30.91 48.88Q32.03 48.78 32.76 48.78Q32.76 48.97 32.62 49.22Q32.47 49.46 32.28 49.68Q32.08 49.90 31.88 50.07Q31.69 50.24 31.64 50.29Q31.25 50.39 30.44 50.56Q29.64 50.73 28.74 50.88Q27.83 51.03 27.05 51.12Q26.27 51.22 25.98 51.22Q24.46 51.51 23.34 51.17Q22.22 50.83 21.44 50Q20.65 49.17 20.17 47.97Q19.68 46.78 19.43 45.41Q19.19 44.04 19.17 42.58Q19.14 41.11 19.29 39.75M26.37 31.40Q25.93 31.40 25.22 31.86Q24.51 32.32 23.90 33.03Q23.29 33.74 22.88 34.55Q22.46 35.35 22.61 35.94Q23.88 36.08 25.24 35.89Q26.61 35.69 27.73 35.28Q28.86 34.86 29.59 34.30Q30.32 33.74 30.30 33.15Q30.27 32.57 29.37 32.10Q28.47 31.64 26.37 31.40ZM35.11 32.18Q35.69 31.93 36.13 32.08Q36.57 32.23 36.87 32.62Q37.16 33.01 37.30 33.52Q37.45 34.03 37.55 34.52Q38.18 33.45 39.38 32.79Q40.58 32.13 41.94 31.91Q43.31 31.69 44.68 31.81Q46.04 31.93 47.00 32.40Q47.95 32.86 48.34 33.67Q48.73 34.47 48.14 35.55Q46.88 34.81 45.48 34.38Q44.09 33.94 42.77 34.08Q41.46 34.23 40.33 35.08Q39.21 35.94 38.48 37.79Q37.74 39.65 37.57 42.70Q37.40 45.75 37.99 50.29L36.13 50.29Q36.13 50.29 36.06 49.49Q35.99 48.68 35.91 47.36Q35.84 46.04 35.72 44.43Q35.60 42.82 35.50 41.16Q35.40 39.50 35.33 37.96Q35.25 36.43 35.16 35.30Q35.16 35.16 35.13 34.72Q35.11 34.28 35.11 33.76Q35.11 33.25 35.11 32.81Q35.11 32.37 35.11 32.18ZM52.93 47.27Q53.81 47.27 54.57 47.61Q55.32 47.95 56.05 48.36Q56.79 48.78 57.54 49.10Q58.30 49.41 59.18 49.41Q60.21 49.41 61.30 49.05Q62.40 48.68 63.33 48.02Q64.26 47.36 64.84 46.41Q65.43 45.46 65.43 44.34Q65.48 43.99 65.45 43.51Q65.43 43.02 65.14 42.50Q64.84 41.99 64.16 41.53Q63.48 41.06 62.18 40.82Q60.89 40.58 58.94 40.55Q56.98 40.53 54.10 40.92Q53.37 40.92 52.69 40.50Q52.00 40.09 51.46 39.48Q50.93 38.87 50.59 38.16Q50.24 37.45 50.24 36.82Q50.24 34.91 51.05 33.72Q51.86 32.52 53.13 31.81Q54.39 31.10 55.96 30.81Q57.52 30.52 59.13 30.52Q59.86 30.52 60.82 30.59Q61.77 30.66 62.57 30.98Q63.38 31.30 63.94 31.98Q64.50 32.67 64.50 33.89Q64.40 34.72 64.23 34.89Q64.06 35.06 63.75 34.79Q63.43 34.52 62.99 34.03Q62.55 33.54 61.94 33.08Q61.33 32.62 60.47 32.37Q59.62 32.13 58.54 32.37Q57.42 32.37 56.30 32.59Q55.18 32.81 54.27 33.35Q53.37 33.89 52.81 34.81Q52.25 35.74 52.25 37.16Q52.25 37.89 52.91 38.16Q53.56 38.43 54.66 38.43Q55.76 38.43 57.15 38.35Q58.54 38.28 60.01 38.28Q61.47 38.28 62.84 38.50Q64.21 38.72 65.26 39.38Q66.31 40.04 66.89 41.26Q67.48 42.48 67.33 44.43Q67.33 45.85 66.53 47.12Q65.72 48.39 64.48 49.34Q63.23 50.29 61.72 50.83Q60.21 51.37 58.79 51.22Q58.20 51.17 57.20 50.90Q56.20 50.63 55.25 50.15Q54.30 49.66 53.61 48.95Q52.93 48.24 52.93 47.27ZM69.82 42.29Q69.82 41.16 70.02 39.67Q70.21 38.18 70.65 36.67Q71.09 35.16 71.75 33.69Q72.41 32.23 73.34 31.08Q74.27 29.93 75.49 29.22Q76.71 28.52 78.22 28.52Q79.79 28.52 81.13 29.59Q82.47 30.66 83.42 32.37Q84.38 34.08 84.86 36.18Q85.35 38.28 85.25 40.28Q85.25 43.21 84.13 45.51Q83.01 47.80 81.27 49.22Q79.54 50.63 77.56 51.12Q75.59 51.61 73.85 50.85Q72.12 50.10 70.97 48.00Q69.82 45.90 69.82 42.29M71.63 42.48Q71.78 45.46 72.66 47.07Q73.54 48.68 74.78 49.19Q76.03 49.71 77.49 49.22Q78.96 48.73 80.22 47.49Q81.49 46.24 82.40 44.36Q83.30 42.48 83.40 40.14Q83.50 38.38 83.13 36.72Q82.76 35.06 82.10 33.76Q81.45 32.47 80.49 31.71Q79.54 30.96 78.32 30.96Q77.15 30.96 76.22 31.54Q75.29 32.13 74.54 33.13Q73.78 34.13 73.24 35.40Q72.71 36.67 72.34 37.94Q71.97 39.21 71.80 40.41Q71.63 41.60 71.63 42.48ZM88.43 50.98Q88.33 50.20 88.26 48.71Q88.18 47.22 88.11 45.34Q88.04 43.46 87.99 41.41Q87.94 39.36 87.89 37.50Q87.84 35.64 87.77 34.16Q87.70 32.67 87.55 31.88Q87.55 31.84 87.52 31.64Q87.50 31.45 87.48 31.20Q87.45 30.96 87.45 30.79Q87.45 30.62 87.45 30.52Q88.18 29.93 88.70 30.13Q89.21 30.32 89.55 30.98Q89.89 31.64 90.04 32.62Q90.19 33.59 90.26 34.57Q90.33 35.55 90.33 36.35Q90.33 37.16 90.33 37.50Q90.43 36.67 90.63 35.55Q90.82 34.42 91.21 33.25Q91.60 32.08 92.16 30.93Q92.72 29.79 93.55 28.91Q94.38 28.03 95.43 27.54Q96.48 27.05 97.85 27.15Q100 27.25 101.39 28.32Q102.78 29.39 103.59 31.20Q104.39 33.01 104.76 35.35Q105.13 37.70 105.25 40.33Q105.37 42.97 105.32 45.68Q105.27 48.39 105.27 50.88Q104.83 50.98 104.39 51.20Q103.96 51.42 103.66 51.39Q103.37 51.37 103.25 50.95Q103.13 50.54 103.32 49.32Q103.37 48.44 103.49 46.61Q103.61 44.78 103.59 42.53Q103.56 40.28 103.32 37.89Q103.08 35.50 102.42 33.52Q101.76 31.54 100.54 30.30Q99.32 29.05 97.36 29.05Q95.36 29.88 94.02 32.18Q92.68 34.47 91.87 37.55Q91.06 40.63 90.70 44.21Q90.33 47.80 90.28 51.22Q90.19 51.17 89.92 51.17Q89.65 51.17 89.33 51.15Q89.01 51.12 88.75 51.07Q88.48 51.03 88.43 50.98ZM107.47 47.02Q107.47 44.24 109.01 42.97Q110.55 41.70 113.04 41.70Q114.01 41.70 114.87 41.75Q115.72 41.80 116.50 41.99Q117.29 42.19 118.04 42.58Q118.80 42.97 119.63 43.70Q119.63 43.55 119.65 43.09Q119.68 42.63 119.68 42.09Q119.68 41.55 119.68 41.09Q119.68 40.63 119.68 40.43Q119.63 39.55 119.63 38.16Q119.63 36.77 119.41 35.30Q119.19 33.84 118.53 32.52Q117.87 31.20 116.41 30.52Q115.38 30.52 114.50 30.86Q113.62 31.20 112.74 31.59Q111.87 31.98 110.99 32.30Q110.11 32.62 109.08 32.62Q109.08 31.40 109.84 30.59Q110.60 29.79 111.67 29.35Q112.74 28.91 113.92 28.76Q115.09 28.61 115.97 28.61Q116.85 28.76 117.60 28.96Q118.36 29.15 119.02 29.74Q119.68 30.32 120.24 31.52Q120.80 32.71 121.22 34.86Q121.63 37.01 121.95 40.31Q122.27 43.60 122.46 48.39Q122.56 49.02 122.05 49.49Q121.53 49.95 120.65 50.27Q119.78 50.59 118.68 50.81Q117.58 51.03 116.46 51.12Q115.33 51.22 114.31 51.27Q113.28 51.32 112.60 51.32Q111.72 51.32 110.82 51.03Q109.91 50.73 109.16 50.17Q108.40 49.61 107.93 48.80Q107.47 48.00 107.47 47.02M113.82 43.60Q111.38 44.29 110.40 45.24Q109.42 46.19 109.55 47.07Q109.67 47.95 110.69 48.66Q111.72 49.37 113.18 49.58Q114.65 49.80 116.36 49.34Q118.07 48.88 119.63 47.51Q119.04 46.09 118.46 45.34Q117.87 44.58 117.19 44.19Q116.50 43.80 115.67 43.70Q114.84 43.60 113.82 43.60ZM125.59 13.28Q126.27 13.38 126.78 13.65Q127.29 13.92 127.59 14.60Q127.59 15.53 127.66 17.16Q127.73 18.80 127.81 20.95Q127.88 23.10 127.98 25.59Q128.08 28.08 128.17 30.62Q128.27 33.15 128.34 35.64Q128.42 38.13 128.49 40.28Q128.56 42.43 128.61 44.09Q128.66 45.75 128.71 46.63Q128.71 46.73 128.69 46.97Q128.66 47.22 128.64 47.56Q128.61 47.90 128.59 48.22Q128.56 48.54 128.56 48.68Q128.52 48.97 128.52 49.39Q128.52 49.80 128.42 50.20Q128.32 50.59 128.10 50.90Q127.88 51.22 127.39 51.27L126.56 50.24Q126.51 50.20 126.44 48.41Q126.37 46.63 126.25 43.77Q126.12 40.92 126.03 37.33Q125.93 33.74 125.81 30.08Q125.68 26.42 125.59 23.05Q125.49 19.68 125.44 17.24Q125.44 17.04 125.46 16.46Q125.49 15.87 125.51 15.26Q125.54 14.65 125.56 14.09Q125.59 13.53 125.59 13.28ZM150.20 43.70Q150.20 43.07 150.27 42.58Q150.34 42.09 151.12 41.85Q151.95 42.19 152.34 42.90Q152.73 43.60 153.00 44.48Q153.27 45.36 153.49 46.29Q153.71 47.22 154.15 47.95Q154.59 48.68 155.42 49.10Q156.25 49.51 157.67 49.37Q160.21 49.12 161.96 48.46Q163.72 47.80 164.87 46.83Q166.02 45.85 166.67 44.53Q167.33 43.21 167.65 41.60Q167.97 39.99 168.04 38.11Q168.12 36.23 168.12 34.08Q168.12 31.88 167.80 29.74Q167.48 27.59 167.11 25.46Q166.75 23.34 166.43 21.22Q166.11 19.09 166.11 16.94Q166.11 16.70 166.14 16.53Q166.16 16.36 166.38 16.28Q166.60 16.21 166.97 16.26Q167.33 16.31 168.02 16.55Q168.07 16.60 168.24 17.21Q168.41 17.82 168.60 18.75Q168.80 19.68 168.99 20.80Q169.19 21.92 169.36 23.05Q169.53 24.17 169.68 25.17Q169.82 26.17 169.87 26.86Q170.07 29.79 170.36 32.81Q170.65 35.84 170.61 38.67Q170.56 41.50 170.00 43.92Q169.43 46.34 167.97 48.07Q166.50 49.80 163.92 50.71Q161.33 51.61 157.28 51.32Q155.81 51.32 154.52 50.66Q153.22 50 152.27 48.93Q151.32 47.85 150.76 46.48Q150.20 45.12 150.20 43.70ZM172.46 42.29Q172.46 41.16 172.66 39.67Q172.85 38.18 173.29 36.67Q173.73 35.16 174.39 33.69Q175.05 32.23 175.98 31.08Q176.90 29.93 178.13 29.22Q179.35 28.52 180.86 28.52Q182.42 28.52 183.76 29.59Q185.11 30.66 186.06 32.37Q187.01 34.08 187.50 36.18Q187.99 38.28 187.89 40.28Q187.89 43.21 186.77 45.51Q185.64 47.80 183.91 49.22Q182.18 50.63 180.20 51.12Q178.22 51.61 176.49 50.85Q174.76 50.10 173.61 48.00Q172.46 45.90 172.46 42.29M174.27 42.48Q174.41 45.46 175.29 47.07Q176.17 48.68 177.42 49.19Q178.66 49.71 180.13 49.22Q181.59 48.73 182.86 47.49Q184.13 46.24 185.03 44.36Q185.94 42.48 186.04 40.14Q186.13 38.38 185.77 36.72Q185.40 35.06 184.74 33.76Q184.08 32.47 183.13 31.71Q182.18 30.96 180.96 30.96Q179.79 30.96 178.86 31.54Q177.93 32.13 177.17 33.13Q176.42 34.13 175.88 35.40Q175.34 36.67 174.98 37.94Q174.61 39.21 174.44 40.41Q174.27 41.60 174.27 42.48ZM190.33 32.28Q190.33 32.03 190.65 31.79Q190.97 31.54 191.43 31.40Q191.89 31.25 192.33 31.20Q192.77 31.15 192.97 31.35Q193.26 37.40 194.12 40.99Q194.97 44.58 196.07 46.24Q197.17 47.90 198.44 47.92Q199.71 47.95 200.93 46.85Q202.15 45.75 203.20 43.85Q204.25 41.94 204.91 39.75Q205.57 37.55 205.71 35.35Q205.86 33.15 205.32 31.45L208.25 31.10Q208.30 31.84 208.52 33.52Q208.74 35.21 209.01 37.33Q209.28 39.45 209.62 41.75Q209.96 44.04 210.21 46.02Q210.45 48.00 210.64 49.39Q210.84 50.78 210.84 51.12L208.74 51.12L206.45 42.68Q205.76 44.38 204.79 45.95Q203.81 47.51 202.66 48.68Q201.51 49.85 200.24 50.51Q198.97 51.17 197.73 51.05Q196.48 50.93 195.31 49.90Q194.14 48.88 193.14 46.66Q192.14 44.43 191.41 40.92Q190.67 37.40 190.33 32.28ZM212.40 32.18Q212.99 31.93 213.43 32.08Q213.87 32.23 214.16 32.62Q214.45 33.01 214.60 33.52Q214.75 34.03 214.84 34.52Q215.48 33.45 216.67 32.79Q217.87 32.13 219.24 31.91Q220.61 31.69 221.97 31.81Q223.34 31.93 224.29 32.40Q225.24 32.86 225.63 33.67Q226.03 34.47 225.44 35.55Q224.17 34.81 222.78 34.38Q221.39 33.94 220.07 34.08Q218.75 34.23 217.63 35.08Q216.50 35.94 215.77 37.79Q215.04 39.65 214.87 42.70Q214.70 45.75 215.28 50.29L213.43 50.29Q213.43 50.29 213.35 49.49Q213.28 48.68 213.21 47.36Q213.13 46.04 213.01 44.43Q212.89 42.82 212.79 41.16Q212.70 39.50 212.62 37.96Q212.55 36.43 212.45 35.30Q212.45 35.16 212.43 34.72Q212.40 34.28 212.40 33.76Q212.40 33.25 212.40 32.81Q212.40 32.37 212.40 32.18ZM228.37 50.98Q228.27 50.20 228.20 48.71Q228.13 47.22 228.05 45.34Q227.98 43.46 227.93 41.41Q227.88 39.36 227.83 37.50Q227.78 35.64 227.71 34.16Q227.64 32.67 227.49 31.88Q227.49 31.84 227.47 31.64Q227.44 31.45 227.42 31.20Q227.39 30.96 227.39 30.79Q227.39 30.62 227.39 30.52Q228.13 29.93 228.64 30.13Q229.15 30.32 229.49 30.98Q229.83 31.64 229.98 32.62Q230.13 33.59 230.20 34.57Q230.27 35.55 230.27 36.35Q230.27 37.16 230.27 37.50Q230.37 36.67 230.57 35.55Q230.76 34.42 231.15 33.25Q231.54 32.08 232.10 30.93Q232.67 29.79 233.50 28.91Q234.33 28.03 235.38 27.54Q236.43 27.05 237.79 27.15Q239.94 27.25 241.33 28.32Q242.72 29.39 243.53 31.20Q244.34 33.01 244.70 35.35Q245.07 37.70 245.19 40.33Q245.31 42.97 245.26 45.68Q245.21 48.39 245.21 50.88Q244.78 50.98 244.34 51.20Q243.90 51.42 243.60 51.39Q243.31 51.37 243.19 50.95Q243.07 50.54 243.26 49.32Q243.31 48.44 243.43 46.61Q243.55 44.78 243.53 42.53Q243.51 40.28 243.26 37.89Q243.02 35.50 242.36 33.52Q241.70 31.54 240.48 30.30Q239.26 29.05 237.30 29.05Q235.30 29.88 233.96 32.18Q232.62 34.47 231.81 37.55Q231.01 40.63 230.64 44.21Q230.27 47.80 230.22 51.22Q230.13 51.17 229.86 51.17Q229.59 51.17 229.27 51.15Q228.96 51.12 228.69 51.07Q228.42 51.03 228.37 50.98ZM247.41 47.02Q247.41 44.24 248.95 42.97Q250.49 41.70 252.98 41.70Q253.96 41.70 254.81 41.75Q255.66 41.80 256.45 41.99Q257.23 42.19 257.98 42.58Q258.74 42.97 259.57 43.70Q259.57 43.55 259.59 43.09Q259.62 42.63 259.62 42.09Q259.62 41.55 259.62 41.09Q259.62 40.63 259.62 40.43Q259.57 39.55 259.57 38.16Q259.57 36.77 259.35 35.30Q259.13 33.84 258.47 32.52Q257.81 31.20 256.35 30.52Q255.32 30.52 254.44 30.86Q253.56 31.20 252.69 31.59Q251.81 31.98 250.93 32.30Q250.05 32.62 249.02 32.62Q249.02 31.40 249.78 30.59Q250.54 29.79 251.61 29.35Q252.69 28.91 253.86 28.76Q255.03 28.61 255.91 28.61Q256.79 28.76 257.54 28.96Q258.30 29.15 258.96 29.74Q259.62 30.32 260.18 31.52Q260.74 32.71 261.16 34.86Q261.57 37.01 261.89 40.31Q262.21 43.60 262.40 48.39Q262.50 49.02 261.99 49.49Q261.47 49.95 260.60 50.27Q259.72 50.59 258.62 50.81Q257.52 51.03 256.40 51.12Q255.27 51.22 254.25 51.27Q253.22 51.32 252.54 51.32Q251.66 51.32 250.76 51.03Q249.85 50.73 249.10 50.17Q248.34 49.61 247.88 48.80Q247.41 48.00 247.41 47.02M253.76 43.60Q251.32 44.29 250.34 45.24Q249.37 46.19 249.49 47.07Q249.61 47.95 250.63 48.66Q251.66 49.37 253.13 49.58Q254.59 49.80 256.30 49.34Q258.01 48.88 259.57 47.51Q258.98 46.09 258.40 45.34Q257.81 44.58 257.13 44.19Q256.45 43.80 255.62 43.70Q254.79 43.60 253.76 43.60ZM265.53 13.28Q266.21 13.38 266.72 13.65Q267.24 13.92 267.53 14.60Q267.53 15.53 267.60 17.16Q267.68 18.80 267.75 20.95Q267.82 23.10 267.92 25.59Q268.02 28.08 268.12 30.62Q268.21 33.15 268.29 35.64Q268.36 38.13 268.43 40.28Q268.51 42.43 268.55 44.09Q268.60 45.75 268.65 46.63Q268.65 46.73 268.63 46.97Q268.60 47.22 268.58 47.56Q268.55 47.90 268.53 48.22Q268.51 48.54 268.51 48.68Q268.46 48.97 268.46 49.39Q268.46 49.80 268.36 50.20Q268.26 50.59 268.04 50.90Q267.82 51.22 267.33 51.27L266.50 50.24Q266.46 50.20 266.38 48.41Q266.31 46.63 266.19 43.77Q266.06 40.92 265.97 37.33Q265.87 33.74 265.75 30.08Q265.63 26.42 265.53 23.05Q265.43 19.68 265.38 17.24Q265.38 17.04 265.41 16.46Q265.43 15.87 265.45 15.26Q265.48 14.65 265.50 14.09Q265.53 13.53 265.53 13.28Z"/></g></g></svg>